<svg xmlns="http://www.w3.org/2000/svg" xmlns:xlink="http://www.w3.org/1999/xlink" width="117" zoomAndPan="magnify" viewBox="0 0 87.75 96.75" height="129" preserveAspectRatio="xMidYMid meet" version="1.0"><defs><clipPath id="04f79721db"><path d="M 0 0.0117188 L 87.5 0.0117188 L 87.5 95.738281 L 0 95.738281 Z M 0 0.0117188 " clip-rule="nonzero"/></clipPath></defs><g clip-path="url(#04f79721db)"><path fill="#c1ff72" d="M 74.40625 49.105469 L 74.589844 49.429688 L 74.753906 49.429688 L 74.8125 49.242188 L 74.789062 49 L 75.042969 49.058594 L 75.273438 49.382812 L 75.273438 49.625 L 75.621094 49.625 L 75.621094 49.324219 L 75.84375 49.1875 L 75.84375 48.917969 L 76.003906 48.839844 L 76.144531 48.839844 L 76.28125 49.023438 L 76.386719 48.839844 L 76.386719 48.210938 L 76.28125 47.910156 L 76.203125 47.160156 L 76.203125 46.613281 L 76.039062 46.589844 L 75.957031 46.289062 L 76.386719 46.289062 L 76.550781 46.265625 L 76.710938 46.046875 C 76.710938 46.046875 76.816406 45.480469 76.851562 45.398438 C 76.875 45.316406 76.792969 44.832031 76.851562 44.75 C 76.90625 44.667969 76.851562 44.183594 76.851562 44.183594 L 76.710938 43.554688 L 76.445312 43.175781 L 76.445312 42.90625 L 76.28125 42.757812 L 76.339844 42.558594 C 76.339844 42.558594 76.363281 42.421875 76.445312 42.375 C 76.527344 42.316406 76.875 42.757812 76.875 42.757812 L 76.976562 42.757812 L 77.082031 42.535156 L 77.382812 42.433594 C 77.382812 42.433594 77.570312 42.457031 77.570312 42.570312 C 77.570312 42.675781 77.570312 42.769531 77.570312 42.769531 L 77.753906 42.769531 L 77.972656 42.59375 L 78.242188 42.59375 C 78.242188 42.59375 78.425781 42.664062 78.425781 42.769531 C 78.425781 42.859375 78.609375 43.058594 78.609375 43.058594 L 78.933594 42.769531 L 79.039062 42.167969 C 79.039062 42.167969 79.121094 41.898438 79.179688 41.785156 C 79.238281 41.679688 79.398438 41.4375 79.398438 41.4375 L 79.398438 41.167969 L 79.539062 40.824219 L 79.539062 40.671875 L 79.722656 40.648438 L 79.910156 40.464844 L 79.910156 40.300781 L 80.046875 40.082031 L 80.046875 39.835938 L 80.234375 39.652344 L 80.394531 39.328125 L 80.394531 38.980469 L 80.128906 38.714844 C 80.128906 38.714844 79.910156 38.691406 79.941406 38.574219 C 79.964844 38.472656 80.046875 38.308594 80.046875 38.308594 L 80.070312 37.800781 L 80.394531 37.695312 L 80.535156 37.507812 L 80.636719 37.183594 L 80.824219 36.917969 L 81.089844 36.734375 L 81.089844 36.46875 C 81.089844 36.46875 81.089844 36.386719 81.089844 36.304688 C 81.089844 36.222656 81.148438 36.085938 81.230469 36.003906 C 81.308594 35.921875 81.390625 35.816406 81.390625 35.816406 L 81.230469 35.492188 L 81.148438 35.03125 L 81.066406 34.683594 L 81.207031 34.21875 L 81.390625 33.917969 C 81.390625 33.917969 81.449219 33.859375 81.53125 33.835938 C 81.609375 33.8125 81.878906 33.757812 81.878906 33.757812 L 82.28125 33.246094 C 82.28125 33.246094 82.46875 33.085938 82.550781 33.085938 C 82.628906 33.085938 82.875 32.816406 82.875 32.816406 L 83.011719 32.574219 L 83.277344 32.550781 C 83.277344 32.550781 83.335938 32.550781 83.441406 32.449219 C 83.546875 32.34375 83.605469 32.121094 83.605469 32.121094 C 83.605469 32.121094 83.824219 31.9375 83.871094 31.855469 C 83.929688 31.777344 84.171875 31.554688 84.253906 31.554688 C 84.332031 31.554688 84.902344 31.417969 84.902344 31.417969 L 85.167969 31.335938 L 85.167969 31.171875 L 85.410156 31.195312 L 85.628906 31.136719 L 85.898438 31.113281 L 86.058594 31.277344 L 86.058594 31.707031 L 86.28125 31.683594 L 86.523438 31.820312 L 86.742188 31.902344 L 86.882812 31.796875 L 86.882812 31.554688 L 86.535156 31.070312 L 86.1875 30.824219 L 86.105469 30.234375 L 86.164062 30.050781 L 86.382812 29.886719 L 86.789062 29.34375 L 87.171875 29.15625 L 87.332031 29.15625 L 87.332031 28.671875 C 87.230469 28.449219 87.089844 28.183594 87.089844 28.183594 L 86.742188 27.699219 L 86.394531 27.675781 L 86.175781 27.777344 L 85.910156 27.757812 L 85.722656 27.757812 L 85.421875 27.734375 L 85.285156 27.59375 L 85.097656 27.59375 L 84.773438 27.699219 C 84.773438 27.699219 84.691406 27.617188 84.613281 27.722656 C 84.53125 27.824219 84.554688 27.941406 84.554688 27.941406 L 84.472656 28.101562 L 84.066406 27.941406 L 84.148438 27.59375 L 84.230469 27.328125 L 84.308594 27.085938 L 84.414062 26.863281 L 84.578125 26.726562 L 84.679688 26.585938 L 84.820312 26.34375 L 84.414062 26.15625 L 84.253906 25.773438 L 83.824219 25.855469 L 83.765625 26.179688 L 83.464844 26.285156 L 83.464844 25.878906 L 83.199219 25.71875 L 83.300781 25.578125 L 83.441406 25.414062 L 83.582031 25.171875 L 83.847656 25.171875 L 83.5 24.953125 L 83.035156 24.410156 L 82.445312 24.789062 L 81.714844 25.253906 L 81.609375 25.601562 L 81.449219 25.867188 L 81.449219 26.03125 L 80.859375 26.03125 L 80.558594 25.785156 L 80.335938 25.785156 L 79.851562 25.808594 L 79.503906 25.648438 L 79.15625 25.382812 L 78.96875 25.359375 L 78.785156 25.601562 C 78.785156 25.601562 78.679688 25.683594 78.519531 25.742188 C 78.355469 25.796875 78.195312 25.796875 78.195312 25.796875 L 77.359375 26.851562 L 76.929688 27.234375 L 76.46875 27.558594 L 75.980469 27.640625 C 75.980469 27.640625 75.761719 27.859375 75.632812 27.859375 C 75.507812 27.859375 75.089844 27.917969 75.089844 27.917969 L 75.007812 28.265625 L 74.824219 28.730469 C 74.824219 28.730469 74.925781 28.808594 74.683594 28.972656 C 74.441406 29.132812 73.875 29.378906 73.875 29.378906 L 73.6875 29.621094 L 73.792969 29.863281 L 73.710938 30.269531 L 73.492188 30.433594 L 73.222656 30.652344 L 72.796875 30.734375 L 72.449219 30.8125 L 72.226562 30.871094 L 71.902344 31.058594 C 71.902344 31.058594 71.636719 31.113281 71.554688 31.113281 C 71.476562 31.113281 71.152344 31.136719 71.152344 31.136719 L 70.828125 31.113281 L 70.722656 31.707031 L 70.804688 31.890625 L 71.128906 32.113281 L 71.511719 32.089844 L 71.730469 32.007812 L 71.949219 31.949219 L 72.25 32.191406 L 72.332031 32.492188 L 72.171875 32.714844 L 71.925781 32.933594 L 72.066406 33.097656 L 72.308594 33.398438 L 72.390625 33.78125 C 72.390625 33.78125 72.496094 34.023438 72.332031 34.023438 C 72.171875 34.023438 71.847656 33.941406 71.847656 33.941406 L 71.742188 34.183594 L 71.476562 34.023438 L 71.371094 34.207031 L 71.046875 34.265625 C 71.046875 34.265625 70.882812 34.289062 70.78125 34.324219 C 70.675781 34.359375 70.515625 34.136719 70.515625 34.136719 L 70.351562 34.160156 L 70.132812 34.347656 C 70.132812 34.347656 69.867188 34.347656 69.785156 34.347656 C 69.703125 34.347656 69.4375 34.371094 69.4375 34.371094 L 68.707031 34.371094 L 68.082031 34.347656 L 67.675781 34.023438 L 66.96875 33.917969 L 66.886719 34.21875 C 66.886719 34.21875 66.75 34.300781 66.644531 34.324219 C 66.539062 34.347656 66.214844 34.429688 66.214844 34.429688 L 65.8125 34.566406 L 65.488281 34.671875 L 65.21875 34.671875 L 64.839844 34.648438 L 64.535156 34.671875 L 64.675781 34.453125 L 64.375 34.472656 L 64.234375 34.371094 C 64.234375 34.371094 64.074219 34.148438 63.992188 34.183594 C 63.910156 34.207031 63.75 34.324219 63.75 34.324219 L 63.320312 34.40625 L 63.179688 34.183594 L 62.71875 33.964844 L 62.660156 33.800781 L 62.578125 33.558594 L 62.441406 33.316406 L 62.496094 33.050781 L 62.578125 32.828125 L 62.660156 32.691406 L 62.578125 32.46875 L 62.417969 32.25 L 62.359375 32.007812 C 62.359375 32.007812 62.335938 31.84375 62.382812 31.742188 C 62.441406 31.636719 62.519531 31.441406 62.519531 31.441406 L 62.542969 31.136719 L 62.601562 30.835938 L 62.542969 30.453125 L 62.40625 30.234375 L 61.941406 30.152344 L 61.757812 30.074219 L 61.511719 30.128906 L 61.210938 30.316406 L 60.992188 30.339844 L 60.886719 30.476562 L 60.296875 30.535156 L 60.296875 30.699219 L 60.4375 30.964844 L 60.4375 31.265625 L 60.378906 31.613281 L 60.03125 31.996094 L 60.007812 32.457031 L 59.984375 33.050781 L 60.042969 33.59375 L 60.261719 33.511719 L 60.285156 33.757812 L 60.390625 34.21875 L 60.691406 34.648438 C 60.691406 34.648438 60.609375 34.648438 60.550781 34.832031 C 60.492188 35.019531 60.390625 35.296875 60.390625 35.296875 L 60.089844 35.355469 L 59.949219 35.863281 L 59.519531 35.460938 L 59.441406 35.621094 L 58.953125 35.703125 L 58.605469 35.808594 L 58.175781 35.703125 L 57.992188 35.945312 C 57.828125 36.003906 57.726562 35.839844 57.726562 35.839844 C 57.503906 35.761719 57.296875 35.703125 57.296875 35.703125 L 57.273438 35.320312 L 57.113281 35.296875 L 57.007812 35.4375 L 56.867188 35.515625 L 56.730469 35.621094 L 56.542969 35.644531 L 56.324219 35.667969 L 56.160156 35.828125 L 55.976562 35.527344 L 55.269531 35.179688 L 54.945312 35.101562 L 54.78125 35.15625 L 54.320312 35.101562 L 53.996094 35.125 L 53.773438 35.261719 L 53.636719 35.34375 C 53.636719 35.34375 53.71875 35.042969 53.230469 35.078125 L 53.3125 34.371094 L 52.847656 34.371094 L 52.386719 34.71875 L 52.003906 34.800781 L 51.78125 34.371094 L 51.402344 34.347656 L 51.238281 34.105469 L 50.773438 33.964844 L 50.289062 33.859375 C 50.289062 33.859375 49.964844 33.941406 50.148438 33.511719 C 50.335938 33.085938 50.125 32.804688 50.125 32.804688 L 49.5 32.726562 L 49.152344 32.585938 L 49.015625 32.367188 L 48.746094 32.261719 L 48.503906 32.15625 L 48.503906 32.425781 L 48.121094 32.425781 L 47.613281 32.585938 L 47.289062 32.449219 L 46.800781 32.34375 L 46.453125 32.34375 L 46.351562 32.527344 L 46.027344 32.851562 L 45.726562 32.390625 L 45.503906 32.367188 L 45.042969 32.226562 L 44.796875 32.144531 L 44.414062 32.121094 L 44.496094 31.796875 L 44.335938 31.449219 L 44.011719 31.429688 L 43.710938 31.507812 L 43.570312 31.484375 L 43.140625 31.265625 L 43.027344 31.242188 L 42.378906 30.8125 L 42.15625 30.757812 C 42.15625 30.757812 42.050781 31 41.972656 31 C 41.890625 31 41.726562 30.757812 41.648438 30.757812 C 41.566406 30.757812 41.054688 30.488281 41.054688 30.488281 L 40.628906 30.109375 L 40.441406 29.921875 L 40.140625 29.898438 L 40.199219 29.320312 L 39.875 29.179688 L 39.609375 29.078125 L 39.386719 28.9375 L 39.007812 28.9375 L 39.109375 28.753906 L 38.84375 28.730469 L 38.578125 28.460938 L 38.3125 28.21875 L 38.113281 28.160156 L 38.03125 28.507812 L 37.847656 28.324219 L 37.5 28.265625 L 37.316406 27.882812 L 37.015625 27.722656 L 37.339844 27.128906 L 37.640625 26.585938 L 37.824219 26.320312 L 38.042969 26.296875 L 37.859375 25.707031 C 37.859375 25.707031 37.835938 25.625 37.859375 25.484375 C 37.882812 25.347656 37.71875 25.382812 37.882812 25.347656 C 38.042969 25.324219 38.183594 25.347656 38.183594 25.265625 C 38.183594 25.183594 38.183594 24.453125 38.183594 24.453125 L 38.507812 24.375 C 38.507812 24.375 38.75 24.128906 38.75 24.050781 C 38.75 23.96875 38.855469 23.804688 38.855469 23.804688 L 39.15625 23.78125 L 39.398438 23.378906 L 39.5625 23.296875 L 39.78125 23.273438 L 39.78125 23.066406 L 39.480469 22.84375 L 39.179688 22.761719 L 38.914062 22.277344 L 38.691406 22.21875 C 38.53125 22.160156 38.183594 21.953125 38.183594 21.953125 L 37.753906 21.929688 L 37.59375 21.742188 L 37.535156 21.339844 C 37.535156 21.339844 37.347656 21.199219 37.292969 21.117188 C 37.234375 21.039062 36.96875 20.980469 36.96875 20.980469 L 36.585938 20.597656 L 36.320312 20.410156 C 36.320312 20.410156 36.238281 20.433594 36.132812 20.433594 C 36.027344 20.433594 35.832031 20.492188 35.832031 20.492188 L 35.53125 20.410156 L 35.390625 20.191406 L 35.171875 20.007812 L 34.988281 19.683594 L 34.800781 19.625 L 34.859375 19.160156 L 34.640625 19.160156 L 34.257812 18.570312 L 34.28125 18.894531 L 34.117188 19.054688 L 33.957031 19.277344 L 33.828125 19.277344 L 33.769531 18.929688 L 33.550781 18.847656 L 33.46875 18.523438 L 33.609375 18.199219 L 33.6875 17.875 L 33.585938 17.609375 L 33.445312 17.367188 L 33.363281 17.144531 L 33.308594 16.84375 L 33.0625 16.761719 L 33.121094 16.253906 L 32.796875 16.011719 L 32.9375 15.824219 L 32.9375 15.339844 L 32.472656 15.234375 L 32.703125 15.082031 L 32.984375 14.804688 L 33.746094 14.804688 L 33.746094 15.246094 L 34.070312 15.6875 L 34.789062 15.246094 L 35.390625 15.246094 L 35.890625 14.585938 L 35.890625 14.039062 L 35.34375 13.601562 L 35.507812 12.941406 C 35.507812 12.941406 35.125 12.675781 34.964844 12.675781 C 34.800781 12.675781 34.292969 12.328125 34.292969 12.328125 L 34.269531 11.433594 L 34.753906 11.296875 L 34.59375 11.15625 L 34.371094 10.507812 L 34.304688 10.136719 L 35.890625 10.136719 L 35.890625 9.59375 L 36.144531 9.222656 L 36.203125 8.828125 L 36.769531 8.828125 L 36.769531 8.238281 L 37.488281 8.015625 L 37.871094 7.253906 L 37.871094 6.59375 L 38.195312 6.046875 L 38.195312 5.609375 L 37.917969 5.109375 L 37.476562 4.832031 L 37.371094 4.507812 L 36.050781 4.507812 L 35.949219 4.230469 L 35.449219 4.230469 L 34.90625 4.449219 L 33.539062 4.449219 C 33.539062 4.449219 33.320312 4.507812 33.15625 4.554688 C 32.992188 4.613281 32.4375 4.878906 32.4375 4.878906 L 31.777344 5.15625 L 31.058594 5.214844 L 30.398438 5.375 L 29.855469 5.273438 L 30.457031 4.832031 L 29.855469 4.449219 L 28.917969 3.953125 L 28.269531 3.023438 L 27.828125 3.023438 C 27.828125 3.023438 27.828125 2.746094 27.609375 2.585938 C 27.386719 2.421875 26.84375 2.144531 26.84375 2.144531 L 26.34375 1.820312 L 26.34375 1.378906 L 26.019531 1.101562 L 25.636719 0.824219 L 25.199219 0.824219 L 25.199219 0.234375 L 24.480469 0.234375 L 24.097656 0.0117188 L 22.234375 0.0117188 L 21.628906 0.234375 L 20.75 0.289062 L 20.75 0.671875 L 20.472656 0.894531 L 19.8125 0.613281 L 19.152344 0.511719 L 18.386719 1.171875 L 17.84375 1.496094 L 17.621094 1.773438 L 17.019531 2.214844 L 17.019531 3.023438 L 17.621094 3.246094 L 18.5625 3.1875 L 18.78125 3.953125 L 19.277344 4.332031 L 20.320312 4.554688 L 20.21875 4.832031 L 19.996094 5.328125 L 20.878906 5.710938 L 21.039062 5.988281 L 20.714844 6.707031 L 19.894531 6.929688 L 19.789062 7.472656 L 19.128906 7.53125 L 19.234375 8.074219 L 19.234375 9.777344 L 19.289062 10.878906 L 19.1875 11.816406 C 19.1875 11.816406 18.863281 12.140625 19.1875 12.359375 C 19.511719 12.582031 19.90625 12.800781 19.90625 12.800781 L 20.566406 13.019531 L 21.109375 13.300781 L 21.167969 13.625 L 21.664062 13.679688 L 22.164062 13.460938 L 22.058594 14.34375 L 22.558594 14.5625 L 22.9375 14.722656 L 23.484375 14.945312 L 24.085938 15.046875 L 23.867188 15.707031 L 23.542969 16.148438 L 22.5 16.148438 L 22.257812 16.460938 C 22.257812 16.460938 21.851562 16.601562 21.628906 16.820312 C 21.410156 17.039062 21.410156 17.039062 21.410156 17.039062 L 21.675781 17.710938 L 21.410156 17.980469 L 21.816406 17.980469 C 21.816406 17.980469 21.457031 18.246094 21.457031 18.476562 C 21.457031 18.699219 21.410156 18.976562 21.410156 18.976562 L 21.769531 18.976562 C 21.769531 18.976562 21.953125 19.3125 21.816406 19.3125 C 21.675781 19.3125 21.675781 19.3125 21.675781 19.3125 L 21.214844 19.601562 L 20.667969 19.960938 L 20.53125 20.285156 L 20.171875 20.609375 C 19.917969 20.828125 19.742188 21.039062 19.742188 21.039062 L 19.382812 21.039062 L 19.636719 21.257812 L 19.382812 21.257812 L 19.488281 21.617188 L 19.382812 21.835938 L 19.382812 22.160156 L 18.988281 22.449219 L 18.769531 22.738281 C 18.769531 22.738281 18.480469 22.671875 18.304688 22.738281 C 18.121094 22.808594 17.910156 22.519531 17.808594 22.738281 C 17.703125 22.960938 17.621094 23.285156 17.621094 23.285156 L 17.089844 24.722656 C 17.089844 24.722656 16.476562 25.21875 16.40625 25.4375 C 16.335938 25.660156 16.117188 25.867188 15.90625 25.984375 C 15.6875 26.085938 14.933594 26.445312 14.933594 26.445312 C 14.933594 26.445312 14.113281 26.839844 14.078125 27.027344 C 14.042969 27.210938 14.042969 27.210938 14.042969 27.210938 C 14.042969 27.210938 13.972656 27.894531 13.859375 27.894531 C 13.742188 27.894531 13.175781 28.289062 13.175781 28.289062 C 13.175781 28.289062 12.882812 29.078125 12.675781 29.191406 C 12.457031 29.296875 12.027344 29.054688 11.460938 29.191406 C 10.878906 29.332031 10.453125 29.378906 10.277344 29.480469 C 10.09375 29.585938 9.421875 29.910156 9.304688 29.480469 C 9.199219 29.054688 9.121094 28.695312 9.121094 28.695312 C 9.121094 28.695312 8.832031 28.148438 8.214844 28.4375 C 7.601562 28.730469 7.636719 29.019531 7.601562 29.121094 C 7.566406 29.226562 7.140625 29.703125 7.140625 29.703125 C 7.140625 29.703125 7 30.027344 6.59375 30.316406 C 6.199219 30.605469 5.875 30.570312 5.691406 30.929688 C 5.503906 31.289062 5.65625 31.394531 5.503906 31.613281 C 5.367188 31.832031 4.925781 31.648438 5.285156 32.078125 C 5.644531 32.503906 5.832031 32.503906 6.003906 32.65625 C 6.1875 32.792969 6.398438 33.085938 6.398438 33.085938 C 6.398438 33.085938 7.117188 32.792969 7.21875 33.269531 C 7.324219 33.734375 7.40625 33.664062 7.253906 33.988281 C 7.117188 34.3125 6.929688 34.453125 6.929688 34.453125 L 6.917969 35.113281 L 7.105469 35.332031 L 7.183594 35.597656 C 7.183594 35.597656 7.046875 35.898438 7.347656 35.980469 C 7.648438 36.0625 8.507812 36.0625 8.507812 36.140625 C 8.507812 36.222656 8.320312 36.769531 8.449219 36.976562 C 8.585938 37.195312 8.992188 38.03125 9.074219 38.191406 C 9.15625 38.355469 9.828125 39.433594 9.828125 39.433594 C 9.828125 39.433594 10.046875 39.617188 9.828125 39.617188 C 9.605469 39.617188 9.480469 39.757812 9.480469 39.757812 C 9.480469 39.757812 9.617188 39.917969 9.582031 40.058594 C 9.558594 40.195312 9.445312 40.21875 9.421875 40.300781 C 9.398438 40.382812 9.503906 40.40625 9.503906 40.40625 L 9.882812 40.40625 L 9.535156 40.730469 C 9.535156 40.730469 9.15625 40.429688 9.109375 40.730469 C 9.050781 41.03125 8.621094 41.078125 8.621094 41.078125 L 8.113281 40.835938 L 8.113281 40.324219 L 7.359375 40.382812 C 7.359375 40.382812 7.300781 40.519531 7.21875 40.519531 L 6.839844 40.519531 C 6.734375 40.519531 6.246094 40.902344 6.246094 40.902344 L 5.414062 40.902344 L 4.949219 40.359375 L 4.242188 40.335938 L 4.058594 40.417969 L 3.894531 40.359375 L 3.59375 40.359375 L 3.351562 40.382812 C 3.351562 40.382812 3.269531 40.195312 3.085938 40.300781 C 2.898438 40.40625 2.820312 40.082031 2.820312 40.082031 L 2.574219 40.347656 L 2.574219 39.941406 L 2.390625 39.941406 L 2.125 41.078125 L 0.8125 41.078125 L 0.570312 41.261719 L 0.351562 41.261719 L 0.132812 41.691406 L 0.00390625 41.910156 L 0.00390625 42.210938 C 0.00390625 42.210938 0.433594 42.234375 0.546875 42.210938 C 0.652344 42.1875 0.6875 41.808594 0.792969 41.785156 C 0.894531 41.761719 1.21875 41.808594 1.21875 41.808594 L 1.8125 41.484375 L 1.707031 41.75 L 1.40625 41.96875 L 0.941406 42.222656 L 0.882812 42.511719 L 0.8125 42.746094 C 0.8125 42.746094 1.242188 42.605469 0.976562 42.988281 C 0.976562 42.988281 1.277344 42.769531 1.277344 42.988281 C 1.277344 43.207031 1.140625 43.394531 1.140625 43.394531 L 1.464844 43.207031 L 1.464844 43.777344 L 1.566406 44.042969 C 1.566406 44.042969 1.832031 44.261719 1.996094 44.34375 C 2.15625 44.425781 2.992188 44.886719 3.074219 45.074219 C 3.15625 45.257812 3.398438 45.074219 3.5 45.210938 C 3.605469 45.351562 3.6875 45.558594 3.6875 45.558594 C 3.6875 45.558594 3.871094 45.316406 4.117188 45.375 C 4.359375 45.433594 4.765625 45.617188 4.84375 45.558594 C 4.925781 45.503906 5.273438 45.375 5.273438 45.375 L 5.574219 45.292969 L 5.714844 45.050781 L 6.222656 45.050781 L 6.167969 44.898438 L 6.109375 44.75 L 6.246094 44.5625 L 6.492188 44.945312 L 6.710938 44.460938 L 6.976562 44.5625 L 7.195312 44.644531 L 7.09375 45.074219 L 6.792969 45.398438 L 6.792969 45.570312 L 6.445312 45.90625 L 6.199219 46.152344 L 6.175781 46.394531 L 5.160156 46.394531 L 5.34375 46.554688 L 4.914062 46.902344 L 4.753906 46.683594 L 4.488281 46.742188 L 4.488281 46.902344 L 4.242188 47.007812 L 4.105469 46.824219 L 3.722656 46.878906 L 3.722656 47.019531 L 3.457031 46.914062 L 3.050781 47.019531 L 2.808594 47.183594 L 2.75 46.914062 L 2.933594 46.648438 L 2.503906 46.671875 L 2.367188 46.613281 L 2.585938 46.371094 L 2.34375 46.3125 C 2.34375 46.3125 2.179688 46.453125 2.15625 46.535156 C 2.136719 46.613281 1.914062 46.878906 2.136719 47.183594 C 2.355469 47.484375 4 49.601562 4 49.601562 L 4.40625 49.949219 L 4.566406 49.949219 L 4.625 50.484375 L 6.132812 51.863281 L 6.558594 52.242188 L 7.265625 52.566406 L 8.5625 52.566406 L 9.074219 52.347656 L 9.375 52.347656 L 9.722656 52.105469 L 9.882812 52 L 10.1875 51.917969 C 10.1875 51.917969 10.371094 51.941406 10.453125 51.941406 C 10.53125 51.941406 10.777344 51.78125 10.777344 51.78125 C 10.777344 51.78125 11.160156 51.699219 11.261719 51.617188 C 11.367188 51.539062 11.507812 51.375 11.507812 51.375 L 11.667969 51.375 L 11.726562 51.109375 L 12.132812 50.703125 C 12.132812 50.703125 12.351562 50.484375 12.351562 50.378906 C 12.351562 50.273438 12.351562 49.949219 12.351562 49.949219 L 12.539062 49.8125 L 12.433594 49.265625 L 12.375 49 L 12.699219 48.515625 L 12.457031 48.375 L 12.59375 48.132812 L 12.839844 48.210938 L 13 48.210938 L 13.164062 48.109375 L 12.917969 48.003906 L 13.140625 47.84375 L 13.441406 47.898438 C 13.441406 47.898438 13.902344 48.167969 13.984375 48.167969 C 14.066406 48.167969 14.574219 48.003906 14.574219 48.003906 L 14.273438 48.328125 L 13.925781 48.351562 L 13.464844 48.132812 L 13.164062 48.558594 L 13.347656 48.640625 L 13.289062 48.828125 L 13.265625 49.046875 L 13.511719 49.105469 L 13.835938 48.964844 L 14.078125 49.023438 L 13.9375 49.242188 L 13.671875 49.242188 L 13.289062 49.300781 L 13.230469 49.707031 L 13.152344 49.949219 L 13.71875 50.089844 L 13.230469 50.195312 L 13.289062 50.414062 L 13.511719 50.332031 L 13.890625 50.171875 L 13.589844 50.632812 L 13.40625 50.714844 L 13.382812 50.957031 L 13.359375 51.121094 L 13.242188 51.234375 L 13.3125 51.410156 L 13.289062 51.640625 L 13.613281 51.710938 L 13.382812 51.90625 L 13.8125 51.90625 L 13.554688 52.058594 L 13.601562 52.335938 L 13.925781 52.335938 L 13.949219 52.464844 L 13.71875 52.566406 L 13.695312 52.71875 L 13.777344 52.847656 L 14.054688 52.847656 L 14.007812 53.042969 L 13.789062 53.042969 L 13.683594 53.644531 L 13.613281 53.84375 L 13.636719 53.945312 L 13.566406 54.074219 L 13.441406 54.179688 L 13.3125 54.457031 L 13.09375 54.5625 L 13.046875 54.734375 L 13.128906 54.863281 L 12.953125 54.941406 L 12.875 55.164062 L 13.046875 55.511719 L 12.792969 55.382812 L 12.746094 55.511719 C 12.746094 55.511719 12.941406 55.589844 12.941406 55.660156 C 12.941406 55.730469 12.769531 55.882812 12.769531 55.882812 L 12.769531 56.03125 L 12.746094 56.160156 L 12.816406 56.261719 L 12.816406 56.414062 C 12.816406 56.414062 12.792969 56.484375 12.746094 56.566406 C 12.699219 56.644531 12.675781 56.820312 12.675781 56.820312 L 12.851562 56.820312 L 12.976562 56.691406 L 13.152344 56.820312 L 12.953125 56.945312 L 12.78125 57.097656 L 12.863281 57.226562 L 12.863281 57.457031 L 13.265625 57.539062 L 12.816406 57.6875 L 12.894531 58.164062 C 12.894531 58.164062 13.070312 58.289062 13.128906 58.289062 C 13.199219 58.289062 13.347656 58.289062 13.347656 58.289062 L 13.199219 58.59375 L 13.046875 58.917969 L 13.371094 59.042969 L 13.394531 59.171875 C 13.394531 59.171875 13.324219 59.148438 13.242188 59.171875 C 13.164062 59.195312 13.046875 59.171875 13.046875 59.171875 L 12.917969 59.183594 C 12.917969 59.183594 12.894531 59.34375 12.894531 59.449219 C 12.894531 59.554688 13.046875 59.878906 13.046875 59.878906 L 13.117188 60.074219 L 12.941406 60.074219 L 12.988281 60.574219 L 13.140625 60.574219 L 13.09375 60.851562 L 13.371094 60.851562 L 13.324219 61 L 12.976562 61 L 12.929688 61.128906 L 13.152344 61.128906 L 13.105469 61.429688 L 13.152344 61.660156 L 13.175781 61.859375 L 13.300781 61.859375 L 13.175781 62.007812 L 13.175781 62.242188 L 13.394531 62.4375 L 13.441406 62.632812 L 13.394531 63.109375 L 13.648438 63.191406 L 13.453125 63.339844 L 13.601562 63.664062 L 13.578125 63.863281 L 13.453125 64.117188 L 13.671875 64.117188 L 13.601562 64.246094 L 13.523438 64.371094 L 13.648438 64.523438 L 13.753906 64.523438 L 13.601562 64.695312 L 13.535156 64.800781 L 13.636719 64.882812 L 13.660156 65.054688 L 13.554688 65.054688 L 13.578125 65.230469 L 13.753906 65.230469 L 13.753906 65.355469 L 13.578125 65.355469 L 13.683594 65.578125 L 13.636719 66.609375 L 13.789062 66.757812 L 13.765625 67.28125 L 13.890625 67.582031 L 13.847656 67.929688 L 13.996094 68.101562 L 13.824219 68.355469 L 13.972656 68.507812 L 14.171875 68.660156 L 14.390625 69.308594 L 14.714844 70.035156 L 14.890625 70.234375 L 15.039062 70.234375 L 14.820312 70.429688 L 15.167969 70.777344 L 15.269531 71 C 15.269531 71 15.316406 71.300781 15.269531 71.367188 C 15.222656 71.4375 15.222656 71.4375 15.222656 71.4375 L 15.59375 72.132812 L 15.769531 72.363281 L 15.539062 72.46875 C 15.539062 72.46875 15.339844 72.539062 15.410156 72.574219 C 15.480469 72.621094 15.664062 72.792969 15.664062 72.792969 L 15.863281 72.6875 L 15.941406 72.910156 L 16.175781 72.910156 L 16.300781 73.257812 L 16.371094 73.535156 L 16.589844 73.6875 L 16.511719 73.859375 L 16.613281 74.160156 L 16.71875 74.335938 L 16.765625 74.566406 L 16.765625 74.761719 L 16.660156 74.984375 C 16.660156 74.984375 17.113281 75.433594 17.183594 75.632812 C 17.25 75.828125 17.160156 76.210938 17.160156 76.210938 L 17.414062 76.210938 C 17.414062 76.210938 17.484375 76.363281 17.414062 76.363281 C 17.34375 76.363281 17.34375 76.363281 17.34375 76.363281 C 17.34375 76.363281 17.320312 76.582031 17.320312 76.640625 C 17.320312 76.699219 17.367188 76.941406 17.367188 76.941406 L 17.320312 77.136719 L 17.101562 77.289062 L 17.296875 77.4375 L 17.53125 77.890625 L 17.484375 78.714844 L 17.609375 78.714844 L 17.679688 78.839844 C 17.679688 78.839844 17.761719 79.234375 17.785156 79.292969 C 17.808594 79.363281 18.039062 80.113281 18.039062 80.113281 L 18.257812 80.507812 L 18.5625 81.78125 L 18.664062 82.175781 L 18.941406 82.28125 L 19.070312 82.429688 L 19.246094 82.429688 L 19.070312 82.628906 L 19.289062 82.859375 L 19.589844 83.078125 L 19.765625 83.277344 L 19.960938 83.40625 L 20.03125 83.796875 C 20.03125 83.796875 20.078125 83.902344 20.078125 84.019531 C 20.078125 84.121094 20.078125 84.25 20.078125 84.25 L 20.207031 84.25 L 20.460938 84.597656 L 20.566406 84.597656 L 20.566406 85.117188 L 20.796875 85.117188 L 20.578125 85.316406 L 20.855469 85.894531 L 20.902344 86.324219 L 20.96875 86.601562 L 21.003906 86.742188 L 21.132812 86.566406 L 21.28125 86.742188 L 21.214844 86.890625 L 21.039062 86.972656 L 21.039062 87.144531 L 21.191406 87.367188 L 21.445312 87.539062 L 21.445312 87.792969 C 21.445312 87.792969 21.515625 88.140625 21.515625 88.222656 C 21.515625 88.304688 21.710938 88.546875 21.710938 88.546875 L 21.78125 88.398438 L 21.953125 88.546875 L 21.910156 88.746094 L 21.734375 88.746094 L 21.78125 89 C 21.78125 89 21.710938 89.195312 21.851562 89.230469 C 21.976562 89.277344 22.175781 89.460938 22.175781 89.460938 L 22.324219 89.683594 L 22.300781 89.984375 L 22.324219 90.238281 L 22.371094 90.34375 L 22.441406 90.714844 L 22.613281 90.714844 L 22.71875 90.863281 L 22.546875 90.863281 L 22.222656 90.785156 L 22.140625 90.238281 L 22.09375 89.808594 L 21.988281 89.53125 L 22.011719 90.738281 L 22.117188 91.210938 L 22.335938 91.6875 L 22.417969 91.988281 C 22.417969 91.988281 22.546875 92.070312 22.570312 92.242188 C 22.59375 92.417969 22.613281 92.613281 22.613281 92.613281 L 22.660156 92.808594 L 22.882812 92.660156 L 23.03125 92.660156 L 23.078125 92.808594 L 22.847656 92.960938 L 22.824219 93.132812 L 23.195312 93.132812 L 23.171875 93.285156 L 23.066406 93.460938 L 23.390625 93.910156 L 23.738281 94.234375 C 23.738281 94.234375 23.96875 94.457031 24.085938 94.582031 C 24.191406 94.710938 24.457031 95.105469 24.457031 95.105469 C 24.457031 95.105469 24.5625 95.253906 24.734375 95.382812 C 24.910156 95.507812 25.210938 95.660156 25.210938 95.660156 L 25.617188 95.789062 C 25.617188 95.789062 25.960938 95.71875 26.019531 95.789062 C 26.089844 95.855469 26.195312 95.765625 26.253906 95.789062 C 26.320312 95.8125 26.402344 95.636719 26.402344 95.636719 L 26.726562 95.613281 L 26.957031 95.464844 L 27.109375 95.140625 C 27.109375 95.140625 27.328125 95.140625 27.386719 95.117188 C 27.457031 95.09375 27.757812 95.011719 27.757812 95.011719 L 28.035156 94.617188 L 28.035156 94.339844 L 28.105469 94.140625 C 28.105469 94.140625 28.152344 93.96875 28.210938 93.910156 C 28.28125 93.839844 28.3125 93.738281 28.3125 93.738281 L 28.335938 92.960938 L 28.660156 92.765625 L 28.894531 92.789062 L 29.066406 92.566406 C 29.242188 92.441406 29.714844 92.335938 29.796875 92.335938 C 29.878906 92.335938 29.925781 92.3125 30.027344 92.3125 C 30.132812 92.3125 30.15625 92.207031 30.15625 92.207031 L 30.527344 92.082031 L 30.957031 92.035156 L 31.1875 92.035156 L 31.488281 92.082031 L 31.742188 92.082031 L 31.964844 92.160156 L 32.136719 92.160156 L 32.566406 92.417969 L 32.589844 92.195312 L 32.355469 92.125 L 32.3125 91.90625 L 32.089844 91.929688 L 31.695312 91.929688 L 31.476562 91.882812 L 31.070312 91.710938 L 30.875 91.433594 L 30.851562 91.085938 L 30.933594 90.863281 L 31.40625 90.214844 L 31.707031 89.808594 L 31.964844 89.554688 L 32.160156 89.429688 C 32.160156 89.429688 32.078125 89.347656 32.078125 89.253906 C 32.078125 89.160156 32.183594 88.929688 32.183594 88.929688 L 32.332031 88.605469 L 32.636719 88.582031 L 33.132812 88.582031 L 33.15625 88.410156 L 33.710938 88.476562 L 33.863281 88.476562 L 34.058594 88.523438 L 34.035156 88.652344 L 34.1875 88.453125 L 34.035156 84.65625 C 34.035156 84.65625 33.933594 84.332031 33.933594 84.261719 C 33.933594 84.191406 33.933594 84.191406 33.957031 84.042969 C 33.980469 83.890625 34 83.636719 34 83.566406 C 34 83.496094 34.257812 82.894531 34.257812 82.894531 L 34.28125 82.722656 L 34.152344 82.570312 L 34.152344 82.417969 L 34.429688 82.570312 L 34.453125 82.222656 L 34.824219 81.921875 L 35.125 81.550781 L 35.054688 81.226562 L 35.355469 81.03125 L 35.425781 80.832031 L 35.53125 80.484375 L 35.660156 80.230469 L 35.636719 79.535156 L 35.714844 79.164062 L 35.785156 78.792969 L 35.855469 78.503906 L 35.660156 78.050781 L 35.3125 77.796875 L 35.265625 77.347656 L 35.195312 77.042969 L 35.195312 76.675781 L 35.324219 76.675781 L 35.402344 76.929688 L 35.402344 77.125 L 35.484375 77.347656 L 35.589844 77.648438 L 35.691406 77.902344 L 35.84375 77.902344 C 35.84375 77.902344 35.796875 77.75 35.773438 77.683594 C 35.75 77.613281 35.703125 77.289062 35.703125 77.289062 L 35.660156 76.941406 L 35.613281 76.535156 L 35.566406 76.234375 C 35.566406 76.234375 35.519531 75.957031 35.519531 75.863281 C 35.519531 75.769531 35.472656 75.585938 35.472656 75.515625 C 35.472656 75.445312 35.390625 75.261719 35.390625 75.261719 L 35.566406 74.867188 C 35.566406 74.867188 35.671875 74.820312 35.671875 74.691406 C 35.671875 74.566406 35.648438 74.195312 35.671875 74.136719 C 35.691406 74.066406 35.75 73.941406 35.671875 73.8125 C 35.589844 73.6875 35.4375 73.117188 35.4375 73.117188 L 35.355469 72.574219 L 35.53125 71.925781 L 35.960938 71.101562 L 36.191406 70.800781 L 36.421875 70.222656 L 36.828125 70.222656 L 37.105469 70 L 37.664062 69.957031 L 37.730469 70.535156 L 37.835938 70.382812 L 37.882812 70.582031 L 37.988281 70.535156 L 38.03125 70.347656 L 38.089844 70.128906 L 38.183594 70.40625 L 38.335938 70.382812 L 38.335938 70.128906 L 38.703125 69.875 L 38.925781 69.574219 L 39.027344 69.320312 L 39.15625 69.191406 L 39.308594 68.785156 L 39.410156 68.714844 L 39.816406 68.667969 C 39.816406 68.667969 39.921875 68.714844 39.96875 68.648438 C 40.015625 68.578125 39.96875 68.472656 39.96875 68.472656 L 40.222656 68.449219 L 40.546875 68.667969 L 40.675781 68.566406 L 40.675781 68.761719 L 40.847656 68.785156 L 41.195312 68.703125 L 41.519531 68.507812 L 41.695312 68.402344 L 42.386719 68.125 L 42.492188 67.929688 L 42.492188 67.371094 L 42.410156 67.175781 L 42.386719 66.875 L 42.609375 66.746094 L 42.609375 67.292969 L 42.828125 66.945312 L 42.828125 66.722656 L 42.609375 66.503906 L 42.980469 66.328125 L 43.382812 65.980469 L 43.710938 65.761719 L 43.988281 65.460938 L 44.636719 65.160156 C 44.636719 65.160156 44.890625 65.078125 45.042969 65.03125 C 45.191406 64.984375 45.367188 64.929688 45.367188 64.929688 L 45.367188 64.753906 L 45.691406 64.582031 C 45.691406 64.582031 45.769531 64.359375 45.816406 64.300781 C 45.863281 64.234375 46.488281 63.628906 46.964844 63.351562 C 47.4375 63.074219 48.132812 62.578125 48.132812 62.578125 L 48.355469 62.402344 L 48.355469 62.03125 C 48.355469 62.03125 49.050781 61.730469 49.210938 61.582031 C 49.386719 61.429688 49.429688 61.152344 49.429688 61.152344 L 49.628906 60.875 L 49.800781 60.652344 L 50.195312 60.328125 L 50.277344 60.15625 L 50.277344 59.980469 L 50.625 59.703125 C 50.625 59.703125 50.972656 59.078125 51.019531 59.007812 C 51.066406 58.9375 51.667969 58.601562 51.667969 58.601562 L 52.097656 58.257812 L 52.441406 58.082031 L 52.722656 57.953125 L 53.394531 57.699219 L 54.191406 57.375 C 54.191406 57.375 54.691406 57.304688 54.886719 57.226562 C 55.085938 57.144531 55.363281 57.050781 55.445312 56.878906 C 55.523438 56.703125 55.511719 56.253906 55.699219 56.253906 C 55.894531 56.253906 56.148438 56.183594 56.21875 56.148438 C 56.289062 56.101562 56.542969 55.925781 56.542969 55.925781 L 56.671875 55.648438 L 56.671875 55.417969 L 56.519531 55.222656 L 57.367188 54.675781 L 57.5625 54.28125 C 57.5625 54.28125 57.414062 54.386719 57.332031 54.410156 C 57.25 54.433594 57.078125 54.539062 57.078125 54.539062 L 56.796875 54.582031 L 56.84375 54.28125 L 57.191406 54.238281 C 57.191406 54.238281 57.367188 54.238281 57.34375 54.109375 C 57.320312 53.980469 57.144531 53.785156 57.113281 53.703125 C 57.066406 53.621094 56.9375 53.296875 56.9375 53.296875 L 57.066406 52.566406 C 57.066406 52.566406 57.34375 52.046875 57.585938 51.941406 C 57.816406 51.839844 58.28125 51.664062 58.28125 51.664062 L 58.734375 51.710938 L 59.207031 51.328125 L 59.753906 51.179688 L 59.9375 50.84375 L 60.125 50.703125 C 60.125 50.703125 60.261719 50.402344 60.367188 50.355469 C 60.472656 50.296875 60.632812 50.171875 60.632812 50.171875 L 60.773438 49.847656 L 60.980469 49.890625 L 60.851562 49.335938 L 61.0625 49.1875 L 61.152344 49.742188 L 61.050781 50.148438 L 61.027344 50.414062 L 61.164062 50.574219 L 61.164062 50.761719 L 61.386719 50.519531 L 61.570312 50.355469 L 61.871094 50.542969 L 62.011719 50.378906 L 62.171875 49.683594 L 62.589844 49.71875 C 62.589844 49.71875 62.707031 49.382812 62.8125 49.417969 C 62.914062 49.441406 62.996094 49.21875 62.996094 49.21875 L 63.167969 49.140625 L 63.4375 49.164062 L 63.527344 49.265625 L 63.632812 49.441406 L 63.65625 49.511719 C 63.679688 49.359375 63.332031 48.722656 63.460938 48.640625 C 63.460938 48.640625 63.472656 48.328125 63.425781 48.28125 C 63.378906 48.234375 63.179688 47.832031 63.179688 47.832031 L 63.101562 47.496094 L 63.136719 47.238281 L 63.148438 47.101562 L 62.902344 46.730469 L 62.902344 46.429688 L 63.238281 46 L 62.996094 45.90625 L 62.71875 45.917969 L 62.636719 46.023438 L 62.496094 46.058594 L 62.453125 45.515625 L 62.554688 45.269531 L 62.613281 45.167969 L 62.554688 45.039062 L 62.230469 44.910156 L 62.070312 44.75 L 61.976562 44.84375 L 61.964844 43.984375 L 62.253906 43.9375 L 62.417969 43.589844 L 62.566406 43.394531 L 62.578125 43.140625 L 62.496094 42.859375 L 62.40625 42.617188 L 62.265625 42.523438 L 61.894531 42.492188 L 61.570312 42.386719 L 61.1875 42.386719 L 61.1875 42.234375 L 60.898438 42.003906 L 60.644531 41.898438 L 60.5625 41.667969 C 60.5625 41.667969 60.527344 41.585938 60.480469 41.585938 C 60.4375 41.585938 60.273438 41.390625 60.273438 41.390625 C 60.273438 41.390625 60.367188 41.25 60.414062 41.203125 C 60.460938 41.160156 60.5625 40.949219 60.5625 40.949219 L 60.550781 40.429688 L 61.027344 40.441406 L 61.039062 40.671875 L 61.292969 40.707031 L 61.164062 40.554688 L 61.175781 40.417969 L 61.386719 40.453125 L 61.433594 40.242188 L 61.59375 40.230469 L 61.582031 39.757812 L 62.53125 39.710938 L 62.53125 39.617188 L 62.949219 39.617188 L 63.054688 39.480469 L 63.066406 39.292969 L 63.101562 39.0625 L 62.9375 39.027344 L 62.902344 39.210938 L 62.8125 39.246094 L 62.625 39.039062 L 62.382812 38.503906 C 62.382812 38.503906 62.289062 39.003906 61.847656 38.796875 C 61.410156 38.585938 61.433594 38.425781 61.433594 38.425781 L 61.386719 38.089844 L 60.945312 37.84375 L 60.460938 37.832031 L 60.472656 37.253906 L 60.632812 37.070312 L 60.621094 36.941406 L 60.609375 36.710938 L 61.027344 36.421875 L 61.210938 36.257812 L 61.246094 36.0625 L 61.304688 35.980469 L 61.558594 35.945312 L 61.523438 35.703125 L 61.292969 35.667969 L 61.1875 35.539062 L 61.085938 35.34375 L 61.074219 35.25 L 61.222656 34.996094 L 61.457031 35.414062 L 61.664062 35.449219 L 61.664062 35.644531 L 61.941406 35.632812 L 61.90625 35.785156 L 62.152344 35.816406 L 62.183594 36.074219 L 62.105469 36.199219 L 62.046875 36.339844 L 62.277344 36.339844 L 62.441406 36.1875 L 62.671875 36.132812 L 62.800781 36.234375 L 63.089844 36.246094 L 62.855469 35.875 L 62.695312 35.679688 L 62.777344 35.621094 L 63.101562 35.609375 L 63.101562 35.75 L 63.296875 35.828125 L 63.378906 35.921875 L 63.378906 36.410156 C 63.378906 36.410156 63.945312 36.929688 64.097656 36.929688 C 64.246094 36.929688 64.675781 36.964844 64.675781 36.964844 L 64.804688 36.757812 L 64.804688 36.617188 L 64.941406 36.421875 L 65.105469 36.269531 L 65.40625 36.398438 L 65.464844 36.699219 L 65.417969 36.894531 L 65.613281 37.082031 L 65.554688 37.324219 L 65.507812 37.554688 L 65.601562 37.8125 L 65.554688 38.632812 L 65.589844 38.96875 L 65.800781 39.074219 C 65.800781 39.074219 66.214844 39.085938 66.261719 39.121094 C 66.308594 39.15625 66.5625 39.316406 66.5625 39.316406 L 66.910156 39.375 L 67.199219 39.457031 L 69.507812 39.5 C 69.507812 39.5 69.921875 39.640625 69.992188 39.511719 C 70.074219 39.386719 70.203125 39.386719 70.328125 39.457031 C 70.457031 39.511719 70.457031 39.582031 70.628906 39.535156 C 70.816406 39.492188 70.90625 39.59375 70.90625 39.59375 L 71.371094 39.582031 L 71.382812 39.480469 L 72.714844 39.46875 L 73.003906 39.722656 L 73.46875 39.757812 L 73.550781 39.847656 L 73.539062 40.128906 L 73.839844 40.164062 L 73.839844 40.507812 L 73.558594 40.5 L 73.085938 40.253906 L 73.050781 40.554688 L 73.214844 40.683594 L 73.257812 40.824219 L 73.203125 40.949219 L 73.015625 41.113281 L 72.980469 41.574219 L 72.609375 42.039062 L 72.484375 42.199219 L 72.296875 42.039062 L 72.160156 42.121094 L 72.125 42.328125 L 72.042969 42.410156 L 72.042969 42.929688 L 71.742188 42.6875 L 71.613281 42.675781 L 71.566406 42.828125 L 71.429688 42.839844 L 71.289062 42.652344 L 71.242188 42.804688 L 71.152344 42.964844 L 70.988281 43.09375 L 70.59375 43.082031 L 70.445312 43.09375 L 70.527344 43.371094 L 70.109375 43.453125 L 70.203125 43.890625 L 69.96875 44.125 L 69.933594 44.367188 L 70.167969 44.449219 L 70.121094 44.796875 L 70.363281 45.050781 L 70.351562 45.304688 L 70.339844 45.457031 L 70.480469 45.652344 L 70.46875 46.1875 C 70.46875 46.1875 70.652344 46.3125 70.664062 46.265625 C 70.675781 46.21875 70.664062 45.722656 70.664062 45.722656 L 70.746094 45.59375 C 70.746094 45.59375 70.941406 45.535156 70.953125 45.652344 C 70.964844 45.78125 71 45.851562 71 45.851562 L 71.035156 46.371094 C 71.035156 46.371094 71.070312 46.453125 71.242188 46.511719 C 71.429688 46.566406 71.566406 46.636719 71.671875 46.5 C 71.777344 46.359375 71.824219 46.394531 71.835938 46.207031 C 71.847656 46.023438 71.730469 45.746094 71.730469 45.710938 C 71.730469 45.664062 71.71875 45.503906 71.71875 45.503906 L 71.902344 45.257812 L 72.066406 45.003906 L 72.226562 44.992188 L 72.171875 44.738281 L 72.113281 44.527344 L 72.125 44.113281 C 72.125 44.113281 72.285156 44.078125 72.308594 44.296875 C 72.320312 44.507812 72.496094 44.378906 72.496094 44.378906 L 72.691406 44.214844 L 72.84375 44.171875 L 72.933594 44.25 L 73.027344 44.148438 L 73.167969 43.949219 L 73.351562 43.984375 L 73.351562 44.273438 L 73.363281 44.472656 L 73.316406 44.945312 L 73.570312 45.132812 L 73.539062 46.175781 L 73.617188 46.40625 L 73.699219 46.695312 L 74.199219 47.785156 L 74.335938 48.203125 Z M 74.40625 49.105469 " fill-opacity="1" fill-rule="nonzero"/></g></svg>